# xmcd
#
# Track frame offsets:
#	150
#	15108
#	32248
#	46112
#	66082
#	84258
#	102737
#	117815
#	136242
#	150287
#	166899
#	180811
#	193339
#	207908
#	225998
#	243093
#	261798
#	274772
#	287721
#
# Disc length: 4052
#
# Revision: 1
# Processed by: cddbd v1.5.1PL0 Copyright (c) Steve Scherf et al.
# Submitted via: VisiTrax 2.9.5.180 - For more info visit www.synapsa.com
# Normalized: r0:DSETVAR1
#
DISCID=ec0fd213
DTITLE=Various Artist - CDX 274 September 2001
DYEAR=2001
DGENRE=
TTITLE0=Blake Shelton - All over me
TTITLE1=Kevin Sharp - Beautiful people
TTITLE2=Jo Dee Messina - Bring on the rain
TTITLE3=Bellamy Brothers - Desperadoes in love
TTITLE4=John Berry - How much do you love me
TTITLE5=Chris Cagle - I breathe in, breathe out
TTITLE6=Steve Azar - I don't have to be me (til monday)
TTITLE7=Rascal Flatts - I'm movin' on
TTITLE8=Toby Keith - I wanna talk about me
TTITLE9=Wild Horses - I will survive
TTITLE10=Derailers - More of your love
TTITLE11=Darryl Worley - Sideways
TTITLE12=Bellamy Brothers - Tired of getting my butt kicked
TTITLE13=Clark Family Experience - To quote Shakespeare
TTITLE14=Oak Ridge Boys - Write your name across my heart
TTITLE15=Razzy Baily - City of lost angels
TTITLE16=Ronnie Lee Twist - Debbie don't do Dallas
TTITLE17=Charlie Allen - It wont shut up
TTITLE18=Dona Nelson - Last seen (dancin' with the cowbos)
EXTD=
EXTT0=
EXTT1=
EXTT2=
EXTT3=
EXTT4=
EXTT5=
EXTT6=
EXTT7=
EXTT8=
EXTT9=
EXTT10=
EXTT11=
EXTT12=
EXTT13=
EXTT14=
EXTT15=
EXTT16=
EXTT17=
EXTT18=
PLAYORDER=
